{
  "accessors": [
    {
      "bufferView": 2,
      "componentType": 5126,
      "count": 358,
      "max": [
        1.8031337261199951,
        0.9925209879875183,
        0.096273273229599
      ],
      "min": [
        -0.9925209283828735,
        -0.9925209283828735,
        -1.3472075462341309
      ],
      "type": "VEC3"
    },
    {
      "bufferView": 2,
      "byteOffset": 4296,
      "componentType": 5126,
      "count": 358,
      "max": [
        0.9757683277130127,
        0.6871051788330078,
        1.0
      ],
      "min": [
        -0.8602335453033447,
        -0.6871051788330078,
        -1.0
      ],
      "type": "VEC3"
    },
    {
      "bufferView": 1,
      "componentType": 5126,
      "count": 358,
      "max": [
        1.0,
        1.0
      ],
      "min": [
        0.0,
        0.0
      ],
      "type": "VEC2"
    },
    {
      "bufferView": 0,
      "componentType": 5125,
      "count": 582,
      "type": "SCALAR"
    },
    {
      "bufferView": 2,
      "byteOffset": 8592,
      "componentType": 5126,
      "count": 4,
      "max": [
        1.78068208694458,
        0.948489785194397,
        -0.017536710947752
      ],
      "min": [
        1.0149725675582886,
        -0.9484897255897522,
        -1.3093304634094238
      ],
      "type": "VEC3"
    },
    {
      "bufferView": 2,
      "byteOffset": 8640,
      "componentType": 5126,
      "count": 4,
      "max": [
        -0.8602324724197388,
        4.184756008385193e-08,
        -0.5099019408226013
      ],
      "min": [
        -0.8602324724197388,
        4.184756008385193e-08,
        -0.5099019408226013
      ],
      "type": "VEC3"
    },
    {
      "bufferView": 1,
      "byteOffset": 2864,
      "componentType": 5126,
      "count": 4,
      "max": [
        0.0,
        0.0
      ],
      "min": [
        0.0,
        0.0
      ],
      "type": "VEC2"
    },
    {
      "bufferView": 0,
      "byteOffset": 2328,
      "componentType": 5125,
      "count": 6,
      "type": "SCALAR"
    },
    {
      "bufferView": 2,
      "byteOffset": 8688,
      "componentType": 5126,
      "count": 246,
      "max": [
        0.7749078273773193,
        0.7625095844268799,
        0.020340366289019585
      ],
      "min": [
        -0.8627293109893799,
        -0.7625095844268799,
        0.020340273156762123
      ],
      "type": "VEC3"
    },
    {
      "bufferView": 2,
      "byteOffset": 11640,
      "componentType": 5126,
      "count": 246,
      "max": [
        1.024398912363722e-07,
        1.9559614372610667e-08,
        -1.0
      ],
      "min": [
        -1.0621150892120568e-07,
        -8.061566347805638e-08,
        -1.0
      ],
      "type": "VEC3"
    },
    {
      "bufferView": 1,
      "byteOffset": 2896,
      "componentType": 5126,
      "count": 246,
      "max": [
        0.0,
        0.0
      ],
      "min": [
        0.0,
        0.0
      ],
      "type": "VEC2"
    },
    {
      "bufferView": 0,
      "byteOffset": 2352,
      "componentType": 5125,
      "count": 372,
      "type": "SCALAR"
    },
    {
      "bufferView": 2,
      "byteOffset": 14592,
      "componentType": 5126,
      "count": 924,
      "max": [
        0.7953603863716125,
        0.7829621434211731,
        0.020340368151664734
      ],
      "min": [
        -0.2599487900733948,
        -0.7829621434211731,
        0.020340271294116974
      ],
      "type": "VEC3"
    },
    {
      "bufferView": 2,
      "byteOffset": 25680,
      "componentType": 5126,
      "count": 924,
      "max": [
        1.684298922555172e-07,
        6.461827695147804e-08,
        -1.0
      ],
      "min": [
        -1.9490428826429707e-07,
        -1.1025478841020231e-07,
        -1.0
      ],
      "type": "VEC3"
    },
    {
      "bufferView": 1,
      "byteOffset": 4864,
      "componentType": 5126,
      "count": 924,
      "max": [
        0.0,
        0.0
      ],
      "min": [
        0.0,
        0.0
      ],
      "type": "VEC2"
    },
    {
      "bufferView": 0,
      "byteOffset": 3840,
      "componentType": 5125,
      "count": 1386,
      "type": "SCALAR"
    }
  ],
  "asset": {
    "extras": {
      "author": "Marco Fischer (https://sketchfab.com/a2e)",
      "license": "CC-BY-4.0 (http://creativecommons.org/licenses/by/4.0/)",
      "source": "https://sketchfab.com/3d-models/laptop-6ad983837d854f44931becddc71add1e",
      "title": "laptop"
    },
    "generator": "Sketchfab-13.17.0",
    "version": "2.0"
  },
  "bufferViews": [
    {
      "buffer": 0,
      "byteLength": 9384,
      "name": "floatBufferViews",
      "target": 34963
    },
    {
      "buffer": 0,
      "byteLength": 12256,
      "byteOffset": 9384,
      "byteStride": 8,
      "name": "floatBufferViews",
      "target": 34962
    },
    {
      "buffer": 0,
      "byteLength": 36768,
      "byteOffset": 21640,
      "byteStride": 12,
      "name": "floatBufferViews",
      "target": 34962
    }
  ],
  "buffers": [
    {
      "byteLength": 58408,
      "uri": "scene.bin"
    }
  ],
  "extensionsRequired": [
    "KHR_materials_pbrSpecularGlossiness"
  ],
  "extensionsUsed": [
    "KHR_materials_pbrSpecularGlossiness"
  ],
  "materials": [
    {
      "doubleSided": true,
      "extensions": {
        "KHR_materials_pbrSpecularGlossiness": {
          "diffuseFactor": [
            1.0,
            1.0,
            1.0,
            1.0
          ],
          "glossinessFactor": 0.1908546768904439,
          "specularFactor": [
            1.0,
            1.0,
            1.0
          ]
        }
      },
      "name": "Material.002"
    },
    {
      "doubleSided": true,
      "extensions": {
        "KHR_materials_pbrSpecularGlossiness": {
          "diffuseFactor": [
            0.0,
            0.0,
            0.0,
            1.0
          ],
          "glossinessFactor": 1.0,
          "specularFactor": [
            0.28495324938133143,
            0.28495324938133143,
            0.28495324938133143
          ]
        }
      },
      "name": "Material.001"
    },
    {
      "doubleSided": true,
      "extensions": {
        "KHR_materials_pbrSpecularGlossiness": {
          "diffuseFactor": [
            0.003300906054344944,
            0.0029399047353069743,
            0.0029399047353069743,
            1.0
          ],
          "glossinessFactor": 0.14818788019163498,
          "specularFactor": [
            0.5043824895466348,
            0.5043824895466348,
            0.5043824895466348
          ]
        }
      },
      "name": "Material.005"
    },
    {
      "doubleSided": true,
      "extensions": {
        "KHR_materials_pbrSpecularGlossiness": {
          "diffuseFactor": [
            0.012518225358363446,
            0.011211288888504287,
            0.011211288888504287,
            1.0
          ],
          "glossinessFactor": 1.0,
          "specularFactor": [
            0.028952469188477523,
            0.028952469188477523,
            0.028952469188477523
          ]
        }
      },
      "name": "Material.004"
    }
  ],
  "meshes": [
    {
      "name": "Plane_Material.002_0",
      "primitives": [
        {
          "attributes": {
            "NORMAL": 1,
            "POSITION": 0,
            "TEXCOORD_0": 2
          },
          "indices": 3,
          "material": 0,
          "mode": 4
        }
      ]
    },
    {
      "name": "Plane_Material.001_0",
      "primitives": [
        {
          "attributes": {
            "NORMAL": 5,
            "POSITION": 4,
            "TEXCOORD_0": 6
          },
          "indices": 7,
          "material": 1,
          "mode": 4
        }
      ]
    },
    {
      "name": "Plane_Material.005_0",
      "primitives": [
        {
          "attributes": {
            "NORMAL": 9,
            "POSITION": 8,
            "TEXCOORD_0": 10
          },
          "indices": 11,
          "material": 2,
          "mode": 4
        }
      ]
    },
    {
      "name": "Plane_Material.004_0",
      "primitives": [
        {
          "attributes": {
            "NORMAL": 13,
            "POSITION": 12,
            "TEXCOORD_0": 14
          },
          "indices": 15,
          "material": 3,
          "mode": 4
        }
      ]
    }
  ],
  "nodes": [
    {
      "children": [
        1
      ],
      "matrix": [
        1.0,
        0.0,
        0.0,
        0.0,
        0.0,
        2.220446049250313e-16,
        -1.0,
        0.0,
        0.0,
        1.0,
        2.220446049250313e-16,
        0.0,
        0.0,
        0.0,
        0.0,
        1.0
      ],
      "name": "Sketchfab_model"
    },
    {
      "children": [
        2
      ],
      "matrix": [
        0.009999999776482582,
        0.0,
        0.0,
        0.0,
        0.0,
        0.0,
        0.009999999776482582,
        0.0,
        0.0,
        -0.009999999776482582,
        0.0,
        0.0,
        0.0,
        0.0,
        0.0,
        1.0
      ],
      "name": "d95856b34cea46e1aa07bfb72a1887ad.fbx"
    },
    {
      "children": [
        3,
        6,
        8,
        13
      ],
      "name": "RootNode"
    },
    {
      "children": [
        4
      ],
      "matrix": [
        -29.08647719990347,
        -5.518906457566863,
        -95.51711910171437,
        0.0,
        56.63930913109449,
        79.46723428563203,
        -21.83912397841966,
        0.0,
        77.11008775993375,
        -60.45246356562044,
        -19.98834696773717,
        0.0,
        69.20907592773438,
        318.0520935058594,
        190.80828857421875,
        1.0
      ],
      "name": "Light"
    },
    {
      "children": [
        5
      ],
      "matrix": [
        1.0,
        0.0,
        0.0,
        0.0,
        0.0,
        2.220446049250313e-16,
        1.0,
        0.0,
        0.0,
        -1.0,
        2.220446049250313e-16,
        0.0,
        0.0,
        0.0,
        0.0,
        1.0
      ],
      "name": "Object_4"
    },
    {
      "name": "Object_5"
    },
    {
      "children": [
        7
      ],
      "matrix": [
        -65.15581009765468,
        -44.527143038140764,
        -61.41704928909654,
        0.0,
        -32.40135466989878,
        89.5395708958271,
        -30.542085476036902,
        0.0,
        68.59207001076176,
        1.2755314797120858e-05,
        -72.76761921184276,
        0.0,
        735.88916015625,
        495.8309326171875,
        692.5791015625,
        1.0
      ],
      "name": "Camera"
    },
    {
      "name": "Object_7"
    },
    {
      "children": [
        9,
        10,
        11,
        12
      ],
      "matrix": [
        100.0,
        0.0,
        0.0,
        0.0,
        0.0,
        -2.4848292307044533e-05,
        152.5177307128886,
        0.0,
        0.0,
        -99.99999999999868,
        -1.629206793918314e-05,
        0.0,
        0.0,
        0.0,
        0.0,
        1.0
      ],
      "name": "Plane"
    },
    {
      "mesh": 0,
      "name": "Plane_Material.002_0"
    },
    {
      "mesh": 1,
      "name": "Plane_Material.001_0"
    },
    {
      "mesh": 2,
      "name": "Plane_Material.005_0"
    },
    {
      "mesh": 3,
      "name": "Plane_Material.004_0"
    },
    {
      "children": [
        14
      ],
      "matrix": [
        -29.08647719990347,
        -5.518906457566863,
        -95.51711910171437,
        0.0,
        56.63930913109449,
        79.46723428563203,
        -21.83912397841966,
        0.0,
        77.11008775993375,
        -60.45246356562044,
        -19.98834696773717,
        0.0,
        453.2933654785156,
        201.0495147705078,
        -24.69536018371582,
        1.0
      ],
      "name": "Light.001"
    },
    {
      "children": [
        15
      ],
      "matrix": [
        1.0,
        0.0,
        0.0,
        0.0,
        0.0,
        2.220446049250313e-16,
        1.0,
        0.0,
        0.0,
        -1.0,
        2.220446049250313e-16,
        0.0,
        0.0,
        0.0,
        0.0,
        1.0
      ],
      "name": "Object_14"
    },
    {
      "name": "Object_15"
    }
  ],
  "scene": 0,
  "scenes": [
    {
      "name": "Sketchfab_Scene",
      "nodes": [
        0
      ]
    }
  ]
}
