{
  "accessors": [
    {
      "bufferView": 2,
      "componentType": 5126,
      "count": 3574,
      "max": [
        3.469132423400879,
        4.566877365112305,
        6.896188735961914
      ],
      "min": [
        -3.428417921066284,
        0.08969652652740479,
        -5.439387798309326
      ],
      "type": "VEC3"
    },
    {
      "bufferView": 2,
      "byteOffset": 42888,
      "componentType": 5126,
      "count": 3574,
      "max": [
        0.999841570854187,
        0.99979567527771,
        0.9955376386642456
      ],
      "min": [
        -0.9999658465385437,
        -1.0,
        -0.9990450739860535
      ],
      "type": "VEC3"
    },
    {
      "bufferView": 1,
      "componentType": 5126,
      "count": 3574,
      "max": [
        1.0,
        1.0000001192092896
      ],
      "min": [
        0.0,
        0.0
      ],
      "type": "VEC2"
    },
    {
      "bufferView": 0,
      "componentType": 5125,
      "count": 17856,
      "type": "SCALAR"
    },
    {
      "bufferView": 2,
      "byteOffset": 85776,
      "componentType": 5126,
      "count": 1836,
      "max": [
        3.4370579719543457,
        3.422964096069336,
        6.899887561798096
      ],
      "min": [
        -3.3965611457824707,
        1.0052753686904907,
        -5.439610004425049
      ],
      "type": "VEC3"
    },
    {
      "bufferView": 2,
      "byteOffset": 107808,
      "componentType": 5126,
      "count": 1836,
      "max": [
        0.9842103123664856,
        0.9967434406280518,
        0.9916741251945496
      ],
      "min": [
        -0.9866521954536438,
        -0.9525906443595886,
        -0.9838285446166992
      ],
      "type": "VEC3"
    },
    {
      "bufferView": 1,
      "byteOffset": 28592,
      "componentType": 5126,
      "count": 1836,
      "max": [
        1.0,
        1.0
      ],
      "min": [
        0.0,
        0.0
      ],
      "type": "VEC2"
    },
    {
      "bufferView": 0,
      "byteOffset": 71424,
      "componentType": 5125,
      "count": 8640,
      "type": "SCALAR"
    },
    {
      "bufferView": 2,
      "byteOffset": 129840,
      "componentType": 5126,
      "count": 441,
      "max": [
        0.43056929111480713,
        3.6920104026794434,
        -1.6856778860092163
      ],
      "min": [
        -0.37059706449508667,
        1.7189022302627563,
        -3.6587862968444824
      ],
      "type": "VEC3"
    },
    {
      "bufferView": 2,
      "byteOffset": 135132,
      "componentType": 5126,
      "count": 441,
      "max": [
        0.9994363188743591,
        1.0,
        1.0
      ],
      "min": [
        -0.9994363188743591,
        -1.0,
        -1.0
      ],
      "type": "VEC3"
    },
    {
      "bufferView": 1,
      "byteOffset": 43280,
      "componentType": 5126,
      "count": 441,
      "max": [
        1.0000001192092896,
        1.0
      ],
      "min": [
        0.0,
        -1.564621925354004e-07
      ],
      "type": "VEC2"
    },
    {
      "bufferView": 0,
      "byteOffset": 105984,
      "componentType": 5125,
      "count": 2400,
      "type": "SCALAR"
    },
    {
      "bufferView": 2,
      "byteOffset": 140424,
      "componentType": 5126,
      "count": 1136,
      "max": [
        0.7411831021308899,
        3.8304786682128906,
        -1.362436056137085
      ],
      "min": [
        -0.6828880310058594,
        1.8565282821655273,
        -4.0561137199401855
      ],
      "type": "VEC3"
    },
    {
      "bufferView": 2,
      "byteOffset": 154056,
      "componentType": 5126,
      "count": 1136,
      "max": [
        0.9998206496238708,
        0.9981910586357117,
        0.8950853943824768
      ],
      "min": [
        -0.9997405409812927,
        -0.44463175535202026,
        -0.9948970675468445
      ],
      "type": "VEC3"
    },
    {
      "bufferView": 1,
      "byteOffset": 46808,
      "componentType": 5126,
      "count": 1136,
      "max": [
        1.0,
        1.0
      ],
      "min": [
        0.0,
        0.0
      ],
      "type": "VEC2"
    },
    {
      "bufferView": 0,
      "byteOffset": 115584,
      "componentType": 5125,
      "count": 5376,
      "type": "SCALAR"
    }
  ],
  "asset": {
    "extras": {
      "author": "Arnau Rocher Alcayde (https://sketchfab.com/ArnauRocherAlcayde)",
      "license": "CC-BY-4.0 (http://creativecommons.org/licenses/by/4.0/)",
      "source": "https://sketchfab.com/3d-models/mouse-ef5398bffec6477c9443677d5c57177c",
      "title": "Mouse"
    },
    "generator": "Sketchfab-12.68.0",
    "version": "2.0"
  },
  "bufferViews": [
    {
      "buffer": 0,
      "byteLength": 137088,
      "name": "floatBufferViews",
      "target": 34963
    },
    {
      "buffer": 0,
      "byteLength": 55896,
      "byteOffset": 137088,
      "byteStride": 8,
      "name": "floatBufferViews",
      "target": 34962
    },
    {
      "buffer": 0,
      "byteLength": 167688,
      "byteOffset": 192984,
      "byteStride": 12,
      "name": "floatBufferViews",
      "target": 34962
    }
  ],
  "buffers": [
    {
      "byteLength": 360672,
      "uri": "scene.bin"
    }
  ],
  "materials": [
    {
      "doubleSided": true,
      "name": "MAT_Plastic",
      "pbrMetallicRoughness": {
        "baseColorFactor": [
          0.011750637479589597,
          0.011750637479589597,
          0.011750637479589597,
          1.0
        ],
        "metallicFactor": 0.0,
        "roughnessFactor": 0.6
      }
    },
    {
      "doubleSided": true,
      "emissiveFactor": [
        0.3858753884586705,
        0.3858753884586705,
        0.3858753884586705
      ],
      "name": "MAT_Emission",
      "pbrMetallicRoughness": {
        "baseColorFactor": [
          0.06315964807290675,
          0.06315964807290675,
          0.06315964807290675,
          1.0
        ],
        "metallicFactor": 0.0,
        "roughnessFactor": 0.6
      }
    },
    {
      "doubleSided": true,
      "name": "MAT_Details",
      "pbrMetallicRoughness": {
        "roughnessFactor": 0.2570773215621181
      }
    }
  ],
  "meshes": [
    {
      "name": "polySurface5_MAT_Plastic_0",
      "primitives": [
        {
          "attributes": {
            "NORMAL": 1,
            "POSITION": 0,
            "TEXCOORD_0": 2
          },
          "indices": 3,
          "material": 0,
          "mode": 4
        }
      ]
    },
    {
      "name": "polySurface2_MAT_Emission_0",
      "primitives": [
        {
          "attributes": {
            "NORMAL": 5,
            "POSITION": 4,
            "TEXCOORD_0": 6
          },
          "indices": 7,
          "material": 1,
          "mode": 4
        }
      ]
    },
    {
      "name": "BOTON_CENTRAL_MAT_Plastic_0",
      "primitives": [
        {
          "attributes": {
            "NORMAL": 9,
            "POSITION": 8,
            "TEXCOORD_0": 10
          },
          "indices": 11,
          "material": 0,
          "mode": 4
        }
      ]
    },
    {
      "name": "polySurface4_MAT_Details_0",
      "primitives": [
        {
          "attributes": {
            "NORMAL": 13,
            "POSITION": 12,
            "TEXCOORD_0": 14
          },
          "indices": 15,
          "material": 2,
          "mode": 4
        }
      ]
    }
  ],
  "nodes": [
    {
      "children": [
        1
      ],
      "matrix": [
        1.0,
        0.0,
        0.0,
        0.0,
        0.0,
        2.220446049250313e-16,
        -1.0,
        0.0,
        0.0,
        1.0,
        2.220446049250313e-16,
        0.0,
        0.0,
        0.0,
        0.0,
        1.0
      ],
      "name": "Sketchfab_model"
    },
    {
      "children": [
        2
      ],
      "matrix": [
        0.009999999776482582,
        0.0,
        0.0,
        0.0,
        0.0,
        0.0,
        0.009999999776482582,
        0.0,
        0.0,
        -0.009999999776482582,
        0.0,
        0.0,
        0.0,
        0.0,
        0.0,
        1.0
      ],
      "name": "eabfacf2ef9a4a6eb05118f06a45a572.fbx"
    },
    {
      "children": [
        3
      ],
      "name": "RootNode"
    },
    {
      "children": [
        4,
        6,
        8,
        10
      ],
      "name": "Mouse"
    },
    {
      "children": [
        5
      ],
      "name": "polySurface5"
    },
    {
      "mesh": 0,
      "name": "polySurface5_MAT_Plastic_0"
    },
    {
      "children": [
        7
      ],
      "name": "polySurface2"
    },
    {
      "mesh": 1,
      "name": "polySurface2_MAT_Emission_0"
    },
    {
      "children": [
        9
      ],
      "name": "BOTON_CENTRAL"
    },
    {
      "mesh": 2,
      "name": "BOTON_CENTRAL_MAT_Plastic_0"
    },
    {
      "children": [
        11
      ],
      "name": "polySurface4"
    },
    {
      "mesh": 3,
      "name": "polySurface4_MAT_Details_0"
    }
  ],
  "scene": 0,
  "scenes": [
    {
      "name": "Sketchfab_Scene",
      "nodes": [
        0
      ]
    }
  ]
}
