<svg id="visual" viewBox="0 0 900 600" width="900" height="600" xmlns="http://www.w3.org/2000/svg" xmlns:xlink="http://www.w3.org/1999/xlink" version="1.1">
    <g transform="translate(455.9000115180853 224.05352790024355)">
        <path d="M47.1,-61.1C62.1,-54,76,-41.6,72.3,-29.1C68.6,-16.7,47.2,-4.1,35.5,5.2C23.8,14.6,21.7,20.8,17.4,35.1C13.1,49.3,6.5,71.6,-3.8,76.8C-14.2,82.1,-28.3,70.2,-32.7,56C-37.2,41.8,-31.9,25.2,-38.7,11C-45.5,-3.3,-64.5,-15.2,-68,-27.5C-71.4,-39.8,-59.3,-52.4,-45.4,-59.9C-31.5,-67.3,-15.8,-69.5,0.2,-69.8C16.1,-70,32.2,-68.2,47.1,-61.1Z" transform="translate(100 100)" />
    </g>
</svg>