<svg id="visual" viewBox="0 0 900 600" width="900" height="600" xmlns="http://www.w3.org/2000/svg" xmlns:xlink="http://www.w3.org/1999/xlink" version="1.1"><rect x="0" y="0" width="900" height="600" fill="#ffffff"></rect><g transform="translate(455.9000115180853 224.05352790024355)"><path d="M119.2 -117.8C184.4 -116.8 287.6 -121.9 293.8 -96.9C299.9 -71.9 208.9 -16.8 143.8 4.4C78.6 25.5 39.3 12.8 19.7 60.4C0 108 0 216 -44.1 276.7C-88.2 337.4 -176.3 350.7 -234.7 315.7C-293 280.6 -321.5 197.2 -297.2 130.1C-273 62.9 -195.9 12.2 -164.8 -44.3C-133.7 -100.7 -148.6 -162.8 -128.7 -178.5C-108.9 -194.3 -54.5 -163.6 -13.7 -144.8C27 -125.9 54.1 -118.8 119.2 -117.8" fill="#caeef7"></path></g></svg>